<svg data-name="Layer 1" xmlns="http://www.w3.org/2000/svg" viewBox="0 0 164.46 21.42"><path d="M12.94 4.32a1.06 1.06 0 0 1-.37.44 1 1 0 0 1-.5.13 1.3 1.3 0 0 1-.66-.22l-.86-.49a7.22 7.22 0 0 0-1.16-.49 5 5 0 0 0-1.57-.22 4.72 4.72 0 0 0-1.43.19 3.06 3.06 0 0 0-1 .53 2.15 2.15 0 0 0-.65.81 2.64 2.64 0 0 0-.2 1A1.8 1.8 0 0 0 5 7.27a3.46 3.46 0 0 0 1.1.83 10.45 10.45 0 0 0 1.56.61l1.79.58a17.44 17.44 0 0 1 1.75.71 6.2 6.2 0 0 1 1.56 1 4.68 4.68 0 0 1 1.1 1.52 5.17 5.17 0 0 1 .42 2.18 7 7 0 0 1-.49 2.62 6 6 0 0 1-1.43 2.12 6.79 6.79 0 0 1-2.3 1.43 8.69 8.69 0 0 1-3.12.52 10.26 10.26 0 0 1-2-.19 10.72 10.72 0 0 1-1.88-.55 10 10 0 0 1-1.68-.86A8.22 8.22 0 0 1 0 18.71l1.14-1.84a1.46 1.46 0 0 1 .39-.34A1 1 0 0 1 2 16.4a1.42 1.42 0 0 1 .79.29q.42.29 1 .65a7.75 7.75 0 0 0 1.4.66 5.38 5.38 0 0 0 1.88.29 3.92 3.92 0 0 0 2.6-.78 2.76 2.76 0 0 0 .92-2.23 2 2 0 0 0-.42-1.33 3.35 3.35 0 0 0-1.1-.86 8.36 8.36 0 0 0-1.56-.59q-.88-.24-1.78-.53a15.73 15.73 0 0 1-1.78-.68 5.76 5.76 0 0 1-1.56-1 4.71 4.71 0 0 1-1.1-1.6 6 6 0 0 1-.44-2.43 5.49 5.49 0 0 1 .46-2.2 5.61 5.61 0 0 1 1.34-1.9A6.68 6.68 0 0 1 4.83.84a8.09 8.09 0 0 1 2.94-.5 10.11 10.11 0 0 1 3.45.57 7.84 7.84 0 0 1 2.69 1.6zm14.7 5.33a1.77 1.77 0 0 1-.31.31.75.75 0 0 1-.45.11 1 1 0 0 1-.54-.16l-.63-.37a4.7 4.7 0 0 0-.87-.37A4.07 4.07 0 0 0 23.59 9a3.9 3.9 0 0 0-1.67.33 3.14 3.14 0 0 0-1.19 1 4.27 4.27 0 0 0-.73 1.5 8 8 0 0 0-.23 2 7.73 7.73 0 0 0 .23 2.1 4.38 4.38 0 0 0 .74 1.53 3.15 3.15 0 0 0 1.26.94 3.62 3.62 0 0 0 1.55.32 3.93 3.93 0 0 0 1.4-.21 4.47 4.47 0 0 0 .9-.46l.64-.46a1 1 0 0 1 .61-.21.74.74 0 0 1 .66.33l1 1.28a6.47 6.47 0 0 1-1.3 1.15 7.08 7.08 0 0 1-1.46.74 7.51 7.51 0 0 1-1.56.39 11.28 11.28 0 0 1-1.59.11 6.81 6.81 0 0 1-2.62-.51 6.09 6.09 0 0 1-2.14-1.48A7.08 7.08 0 0 1 16.62 17a9 9 0 0 1-.53-3.2 9.11 9.11 0 0 1 .48-3A6.73 6.73 0 0 1 18 8.48a6.4 6.4 0 0 1 2.24-1.58 8 8 0 0 1 3.13-.57 7.62 7.62 0 0 1 2.95.53 7.2 7.2 0 0 1 2.27 1.51zm3.41 11.75V6.32h2.12a1.16 1.16 0 0 1 .77.2 1.13 1.13 0 0 1 .29.68l.22 2a7 7 0 0 1 1.89-2.14 4 4 0 0 1 2.43-.78 3.2 3.2 0 0 1 1.84.5l-.47 2.64a.54.54 0 0 1-.19.36.66.66 0 0 1-.39.11 2.49 2.49 0 0 1-.6-.1 4.15 4.15 0 0 0-1-.1 3.12 3.12 0 0 0-1.96.61 4.68 4.68 0 0 0-1.36 1.78v9.32zM49.2 6.33a7.46 7.46 0 0 1 2.61.44 5.75 5.75 0 0 1 2.06 1.29 5.87 5.87 0 0 1 1.34 2.08 7.67 7.67 0 0 1 .48 2.86 4.85 4.85 0 0 1 0 .66 1.05 1.05 0 0 1-.13.41.54.54 0 0 1-.26.21 1.12 1.12 0 0 1-.41.06h-9.3a5 5 0 0 0 1.24 3.31 3.93 3.93 0 0 0 2.87 1.06 5.09 5.09 0 0 0 1.51-.2 7.16 7.16 0 0 0 1.11-.51l.83-.44a1.42 1.42 0 0 1 .69-.2.81.81 0 0 1 .38.08.84.84 0 0 1 .28.24L55.56 19a6 6 0 0 1-1.35 1.15 7.58 7.58 0 0 1-1.56.74 8.66 8.66 0 0 1-1.65.39 12.08 12.08 0 0 1-1.63.11 8.21 8.21 0 0 1-2.91-.51 6.52 6.52 0 0 1-2.34-1.5 7 7 0 0 1-1.56-2.45 9.28 9.28 0 0 1-.56-3.37 7.93 7.93 0 0 1 .5-2.82 6.6 6.6 0 0 1 3.68-3.84 7.64 7.64 0 0 1 3.02-.57zm.07 2.52a3.39 3.39 0 0 0-2.47.87 4.24 4.24 0 0 0-1.14 2.47h6.79a4.29 4.29 0 0 0-.19-1.29 3 3 0 0 0-.59-1.06 2.77 2.77 0 0 0-1-.72 3.46 3.46 0 0 0-1.4-.27zm15.56-2.52a7.46 7.46 0 0 1 2.61.44 5.75 5.75 0 0 1 2.06 1.29 5.87 5.87 0 0 1 1.34 2.08 7.67 7.67 0 0 1 .49 2.86 4.85 4.85 0 0 1 0 .66 1.05 1.05 0 0 1-.13.41.54.54 0 0 1-.26.21 1.12 1.12 0 0 1-.41.06h-9.31a5 5 0 0 0 1.24 3.31 3.93 3.93 0 0 0 2.87 1.06 5.09 5.09 0 0 0 1.51-.2A7.16 7.16 0 0 0 68 18l.83-.44a1.42 1.42 0 0 1 .69-.2.81.81 0 0 1 .38.08.84.84 0 0 1 .28.24L71.2 19a6 6 0 0 1-1.35 1.15 7.58 7.58 0 0 1-1.56.74 8.66 8.66 0 0 1-1.65.39 12.08 12.08 0 0 1-1.64.12 8.21 8.21 0 0 1-2.91-.51 6.52 6.52 0 0 1-2.34-1.5 7 7 0 0 1-1.56-2.45 9.28 9.28 0 0 1-.57-3.39 7.93 7.93 0 0 1 .5-2.82 6.6 6.6 0 0 1 3.7-3.83 7.64 7.64 0 0 1 3.01-.57zm.07 2.52a3.39 3.39 0 0 0-2.47.87 4.24 4.24 0 0 0-1.14 2.47h6.79a4.29 4.29 0 0 0-.19-1.29 3 3 0 0 0-.59-1.06 2.77 2.77 0 0 0-1-.72 3.46 3.46 0 0 0-1.39-.27zm9.37 12.55v-15h2.21a.89.89 0 0 1 .92.6l.25 1.36a8.29 8.29 0 0 1 1-.83 6.73 6.73 0 0 1 1.07-.64 5.55 5.55 0 0 1 1.21-.41 6.55 6.55 0 0 1 1.4-.14 5.5 5.5 0 0 1 2.18.41A4.3 4.3 0 0 1 86 7.88a5 5 0 0 1 1 1.75 7.27 7.27 0 0 1 .33 2.25v9.52h-3.6v-9.52a3.07 3.07 0 0 0-.64-2.07 2.39 2.39 0 0 0-1.91-.73 3.85 3.85 0 0 0-1.76.41 6.3 6.3 0 0 0-1.55 1.13V21.4zm31.37-5.14a.74.74 0 0 1 .56.25l1.55 1.66a8.51 8.51 0 0 1-3.17 2.41 11 11 0 0 1-4.51.84 10.79 10.79 0 0 1-4.23-.79 9.34 9.34 0 0 1-3.21-2.21 9.67 9.67 0 0 1-2-3.38 12.54 12.54 0 0 1-.71-4.29 11.43 11.43 0 0 1 .79-4.31 9.87 9.87 0 0 1 2.22-3.37A10.07 10.07 0 0 1 96.32.85a11.91 11.91 0 0 1 4.41-.79 10.54 10.54 0 0 1 4.12.74 9.66 9.66 0 0 1 3 2l-1.32 1.8a1.2 1.2 0 0 1-.3.3.86.86 0 0 1-.5.13 1.16 1.16 0 0 1-.69-.26 8.34 8.34 0 0 0-.89-.56 7.32 7.32 0 0 0-1.37-.56 8 8 0 0 0-4.78.24 6.08 6.08 0 0 0-2.2 1.46 6.74 6.74 0 0 0-1.4 2.32 8.81 8.81 0 0 0-.5 3.07 9.05 9.05 0 0 0 .5 3.13 6.86 6.86 0 0 0 1.37 2.31 5.82 5.82 0 0 0 2 1.44 6.34 6.34 0 0 0 2.52.5 11 11 0 0 0 1.46-.09 6.2 6.2 0 0 0 1.2-.27 5.32 5.32 0 0 0 1-.48 6.46 6.46 0 0 0 1-.73 1.42 1.42 0 0 1 .31-.21.78.78 0 0 1 .38-.08zM114.36 0v21.38h-3.61V0zm10.48 6.33a8.41 8.41 0 0 1 3 .53 6.41 6.41 0 0 1 3.82 3.86 8.78 8.78 0 0 1 .53 3.12 8.83 8.83 0 0 1-.53 3.14 6.73 6.73 0 0 1-1.49 2.38 6.49 6.49 0 0 1-2.33 1.51 9.1 9.1 0 0 1-6.11 0 6.55 6.55 0 0 1-2.35-1.51 6.76 6.76 0 0 1-1.45-2.36 8.73 8.73 0 0 1-.53-3.14 8.69 8.69 0 0 1 .53-3.12 6.46 6.46 0 0 1 3.85-3.86 8.47 8.47 0 0 1 3.06-.55zm0 12.36a3.21 3.21 0 0 0 2.77-1.23 6 6 0 0 0 .9-3.59 6.1 6.1 0 0 0-.9-3.61A3.2 3.2 0 0 0 124.84 9a3.24 3.24 0 0 0-2.84 1.27 6.07 6.07 0 0 0-.91 3.6 6 6 0 0 0 .91 3.59 3.26 3.26 0 0 0 2.84 1.23zm13.53-12.37v9.53a3.07 3.07 0 0 0 .64 2.07 2.39 2.39 0 0 0 1.91.73 3.9 3.9 0 0 0 1.76-.41 6.13 6.13 0 0 0 1.55-1.12V6.32h3.61V21.4h-2.21a.89.89 0 0 1-.92-.64l-.25-1.38a10.32 10.32 0 0 1-1 .83 5.83 5.83 0 0 1-1.06.64 6 6 0 0 1-1.21.41 6.24 6.24 0 0 1-1.4.15 5.44 5.44 0 0 1-2.17-.41 4.34 4.34 0 0 1-1.59-1.15 5 5 0 0 1-1-1.76 7.3 7.3 0 0 1-.33-2.25V6.32zm23.88 15.08a.89.89 0 0 1-.92-.64l-.33-1.63a8.83 8.83 0 0 1-1 .93 6.22 6.22 0 0 1-1.1.71 5.85 5.85 0 0 1-1.27.46 6.3 6.3 0 0 1-1.47.16 5.08 5.08 0 0 1-2.25-.5 5 5 0 0 1-1.76-1.45 6.85 6.85 0 0 1-1.14-2.35 11.53 11.53 0 0 1-.4-3.19 9.74 9.74 0 0 1 .45-3 7.29 7.29 0 0 1 1.3-2.42 5.9 5.9 0 0 1 4.7-2.18 5.32 5.32 0 0 1 2.15.39 5.64 5.64 0 0 1 1.59 1V.09h3.61V21.4zm-4.81-2.79a3.78 3.78 0 0 0 1.92-.46 5.64 5.64 0 0 0 1.49-1.3v-6.56a3.55 3.55 0 0 0-1.34-1A4 4 0 0 0 158 9a3.57 3.57 0 0 0-1.48.3 2.89 2.89 0 0 0-1.13.91 4.37 4.37 0 0 0-.71 1.54 8.65 8.65 0 0 0-.25 2.2 9.54 9.54 0 0 0 .21 2.17 4.23 4.23 0 0 0 .61 1.45 2.31 2.31 0 0 0 1 .81 3.15 3.15 0 0 0 1.19.23z" fill="#2d313a"/></svg>